<?xml version="1.0" encoding="UTF-8" standalone="no"?>
<svg
   width="2014"
   height="2014"
   data-name="Layer 1"
   version="1.1"
   viewBox="0 0 2014 2014"
   xml:space="preserve"
   id="svg78"
   sodipodi:docname="Globo_2025_Vector.svg"
   inkscape:version="1.2.2 (b0a8486541, 2022-12-01)"
   xmlns:inkscape="http://www.inkscape.org/namespaces/inkscape"
   xmlns:sodipodi="http://sodipodi.sourceforge.net/DTD/sodipodi-0.dtd"
   xmlns="http://www.w3.org/2000/svg"
   xmlns:svg="http://www.w3.org/2000/svg"><sodipodi:namedview
     id="namedview80"
     pagecolor="#ffffff"
     bordercolor="#000000"
     borderopacity="0.25"
     inkscape:showpageshadow="2"
     inkscape:pageopacity="0.0"
     inkscape:pagecheckerboard="0"
     inkscape:deskcolor="#d1d1d1"
     showgrid="false"
     inkscape:zoom="0.23633385"
     inkscape:cx="1009.1656"
     inkscape:cy="1007.05"
     inkscape:window-width="1366"
     inkscape:window-height="683"
     inkscape:window-x="0"
     inkscape:window-y="0"
     inkscape:window-maximized="1"
     inkscape:current-layer="svg78" /><defs
     id="defs52"><radialGradient
       id="radial-gradient"
       cx="1326"
       cy="-359.75"
       r="1279.2"
       gradientTransform="matrix(1.2428,0,0,0.8804,-322.1,888.85)"
       gradientUnits="userSpaceOnUse"><stop
         stop-color="#fff8ff"
         offset=".29124"
         id="stop2" /><stop
         stop-color="#e5d8f1"
         offset=".5319"
         id="stop4" /><stop
         stop-color="#b19ad6"
         offset=".86"
         id="stop6" /></radialGradient><radialGradient
       id="radial-gradient-2"
       cx="809.15002"
       cy="1344.2"
       r="962.75"
       gradientTransform="matrix(0.92913257,-0.36974676,0.57969159,1.4590608,-1450.8,-306.51)"
       gradientUnits="userSpaceOnUse"><stop
         stop-color="#fff8ff"
         offset=".06"
         id="stop9" /><stop
         stop-color="#cab9e6"
         stop-opacity="0"
         offset="1"
         id="stop11" /></radialGradient><radialGradient
       id="radial-gradient-4"
       cx="1127"
       cy="8034.7002"
       r="4641.2002"
       gradientTransform="matrix(1,0,0,-0.18999057,-0.13,2170.0922)"
       gradientUnits="userSpaceOnUse"><stop
         stop-color="#fbba30"
         stop-opacity="0"
         offset=".44"
         id="stop14" /><stop
         stop-color="#cc9a00"
         offset=".66"
         id="stop16" /><stop
         stop-color="#fd3100"
         offset=".93"
         id="stop18" /></radialGradient><radialGradient
       id="radial-gradient-5"
       cx="1022.5"
       cy="7289"
       r="4641.2002"
       gradientTransform="matrix(1,0,0,-0.18999057,-0.13,2772.1624)"
       gradientUnits="userSpaceOnUse"><stop
         stop-color="#4cabf4"
         stop-opacity="0"
         offset=".37"
         id="stop21" /><stop
         stop-color="#00a6e1"
         offset=".65"
         id="stop23" /><stop
         stop-color="#2952f5"
         offset=".95"
         id="stop25" /></radialGradient><radialGradient
       id="radial-gradient-6"
       cx="987"
       cy="2456.6001"
       r="1478.7"
       gradientTransform="matrix(1,0,0,-0.99995035,-0.13,3506.7259)"
       gradientUnits="userSpaceOnUse"><stop
         stop-color="#000c1a"
         stop-opacity="0"
         offset=".35977"
         id="stop28" /><stop
         stop-color="#000717"
         stop-opacity=".39646"
         offset="1"
         id="stop30" /></radialGradient><radialGradient
       id="radial-gradient-7"
       cx="2115"
       cy="422.63"
       r="444.22"
       fx="2099.8"
       fy="449.22"
       gradientTransform="matrix(0,-1.3199,1.6896,5.9155e-8,435.67,3641)"
       gradientUnits="userSpaceOnUse"><stop
         stop-color="#fff7fe"
         offset=".095722"
         id="stop33" /><stop
         stop-color="#ead9f3"
         offset=".32187"
         id="stop35" /><stop
         stop-color="#d0b3e6"
         offset=".79933"
         id="stop37" /><stop
         stop-color="#fd96c1"
         offset="1"
         id="stop39" /></radialGradient><radialGradient
       id="radial-gradient-8"
       cx="583.88"
       cy="3934.8"
       r="262.98001"
       fx="575.88"
       fy="3848"
       gradientTransform="matrix(-0.66837,-2.4944,1.3219,-0.31904,-4025.6,3805.3)"
       gradientUnits="userSpaceOnUse"><stop
         stop-color="#f3ecff"
         offset="0"
         id="stop42" /><stop
         stop-color="#d9c9f5"
         stop-opacity="0"
         offset=".62"
         id="stop44" /></radialGradient><radialGradient
       id="radialGradient46"
       cx="1008.7"
       cy="1248.2"
       r="423.34"
       gradientTransform="matrix(1.6485,0,0,1.6418,-653.43,-790.23)"
       gradientUnits="userSpaceOnUse"><stop
         stop-color="#f0e7ff"
         stop-opacity="0"
         offset=".8"
         id="stop47" /><stop
         stop-color="#b0a4ff"
         offset="1"
         id="stop49" /></radialGradient></defs><g
     id="g58"
     transform="scale(1,0.99995035)"><path
       d="m 1007,2014.1 c 555.83,0 1007,-452.43 1007,-1007 C 2014,452.53 1562.83,0 1007,0 451.17,0 0,452.42 0,1007 0,1561.58 451.21,2014 1007,2014"
       fill="url(#radial-gradient)"
       id="path54"
       style="fill:url(#radial-gradient)" /><path
       d="m 1007,2014.1 c 555.83,0 1007,-452.43 1007,-1007 C 2014,452.53 1562.83,0 1007,0 451.17,0 0,452.42 0,1007 0,1561.58 451.21,2014 1007,2014"
       fill="url(#radial-gradient-2)"
       id="path56"
       style="fill:url(#radial-gradient-2)" /></g><path
     d="m 195.87,1390.051 c -12.87,-132.4234 -15.9,-244.5979 -15.9,-383.101 0,-138.50312 2.87,-251.6875 15.73,-384.11093 7,-72.11641 38.27,-97.62515 102.93,-104.6648 223.53,-24.32879 476.53,-44.41779 708.16,-43.68783 231.64,-0.73996 465.14,13.66932 688.67,37.99811 64.66,6.99966 114.47,27.31865 121.46,99.43507 16.5,127.40367 16.94,256.55726 16.94,394.98038 0,138.4231 -1.53,262.117 -14.38,394.5404 -7,72.1164 -57.44,92.9954 -122.09,100.065 -223.53,24.3288 -459,38.5881 -690.59,37.8582 -231.64,0.7399 -483.6,-16.0592 -707.13,-40.388 -64.66,-6.9997 -96.82,-36.8982 -103.81,-108.9946 v 0.07 z"
     fill="#01a740"
     id="path60"
     style="stroke-width:0.999975" /><path
     d="m 195.87,1390.051 c -12.87,-132.4234 -15.9,-244.5979 -15.9,-383.101 0,-138.50312 2.87,-251.6875 15.73,-384.11093 7,-72.11641 38.27,-97.62515 102.93,-104.6648 223.53,-24.32879 476.53,-44.41779 708.16,-43.68783 231.64,-0.73996 465.14,13.66932 688.67,37.99811 64.66,6.99966 114.47,27.31865 121.46,99.43507 16.5,127.40367 16.94,256.55726 16.94,394.98038 0,138.4231 -1.53,262.117 -14.38,394.5404 -7,72.1164 -57.44,92.9954 -122.09,100.065 -223.53,24.3288 -459,38.5881 -690.59,37.8582 -231.64,0.7399 -483.6,-16.0592 -707.13,-40.388 -64.66,-6.9997 -96.82,-36.8982 -103.81,-108.9946 v 0.07 z"
     fill="url(#radial-gradient-4)"
     id="path62"
     style="fill:url(#radial-gradient-4);stroke-width:0.999975" /><path
     d="m 195.87,1390.051 c -12.87,-132.4234 -15.9,-244.5979 -15.9,-383.101 0,-138.50312 2.87,-251.6875 15.73,-384.11093 7,-72.11641 38.27,-97.62515 102.93,-104.6648 223.53,-24.32879 476.53,-44.41779 708.16,-43.68783 231.64,-0.73996 465.14,13.66932 688.67,37.99811 64.66,6.99966 114.47,27.31865 121.46,99.43507 16.5,127.40367 16.94,256.55726 16.94,394.98038 0,138.4231 -1.53,262.117 -14.38,394.5404 -7,72.1164 -57.44,92.9954 -122.09,100.065 -223.53,24.3288 -459,38.5881 -690.59,37.8582 -231.64,0.7399 -483.6,-16.0592 -707.13,-40.388 -64.66,-6.9997 -96.82,-36.8982 -103.81,-108.9946 v 0.07 z"
     fill="url(#radial-gradient-5)"
     id="path64"
     style="fill:url(#radial-gradient-5);stroke-width:0.999975" /><path
     d="m 195.87,1390.051 c -12.87,-132.4234 -15.9,-244.5979 -15.9,-383.101 0,-138.50312 2.87,-251.6875 15.73,-384.11093 7,-72.11641 38.27,-97.62515 102.93,-104.6648 223.53,-24.32879 476.53,-44.41779 708.16,-43.68783 231.64,-0.73996 465.14,13.66932 688.67,37.99811 64.66,6.99966 114.47,27.31865 121.46,99.43507 16.5,127.40367 16.94,256.55726 16.94,394.98038 0,138.4231 -1.53,262.117 -14.38,394.5404 -7,72.1164 -57.44,92.9954 -122.09,100.065 -223.53,24.3288 -459,38.5881 -690.59,37.8582 -231.64,0.7399 -483.6,-16.0592 -707.13,-40.388 -64.66,-6.9997 -96.82,-36.8982 -103.81,-108.9946 v 0.07 z"
     fill="url(#radial-gradient-6)"
     id="path66"
     style="fill:url(#radial-gradient-6);stroke-width:0.999975" /><g
     id="g76"
     transform="scale(1,0.99995035)"><path
       d="m 1006.9,1428.7 c 234.44,0 423.36,-189.43 423.36,-421.63 0,-232.2 -188.89,-421.63 -423.36,-421.63 -234.47,0 -423.32,189.43 -423.32,421.59 0,232.16 188.92,421.67 423.32,421.67"
       fill="#fff8ff"
       id="path68" /><path
       d="m 1006.9,1428.7 c 234.44,0 423.36,-189.43 423.36,-421.63 0,-232.2 -188.89,-421.63 -423.36,-421.63 -234.47,0 -423.32,189.43 -423.32,421.59 0,232.16 188.92,421.67 423.32,421.67"
       fill="url(#radial-gradient-7)"
       id="path70"
       style="fill:url(#radial-gradient-7)" /><path
       d="m 1006.9,1428.7 c 234.44,0 423.36,-189.43 423.36,-421.63 0,-232.2 -188.89,-421.63 -423.36,-421.63 -234.47,0 -423.32,189.43 -423.32,421.59 0,232.16 188.92,421.67 423.32,421.67"
       fill="url(#radial-gradient-8)"
       id="path72"
       style="fill:url(#radial-gradient-8)" /><path
       d="m 1006.9,1428.7 c 234.44,0 423.36,-189.43 423.36,-421.63 0,-232.2 -188.89,-421.63 -423.36,-421.63 -234.47,0 -423.32,189.43 -423.32,421.59 0,232.16 188.92,421.67 423.32,421.67"
       fill="url(#radialGradient46)"
       id="path74"
       style="fill:url(#radialGradient46)" /></g></svg>
